<?xml version="1.0" encoding="utf-8"?>
<!-- Generator: Adobe Illustrator 22.1.0, SVG Export Plug-In . SVG Version: 6.00 Build 0)  -->
<svg version="1.1" id="Layer_1" xmlns="http://www.w3.org/2000/svg" xmlns:xlink="http://www.w3.org/1999/xlink" x="0px" y="0px"
	 viewBox="0 0 127.9 177.3" style="enable-background:new 0 0 127.9 177.3;" xml:space="preserve">
<style type="text/css">
	.st0{fill:#2B2A29;}
</style>
<g id="Layer_x0020_1">
	<g id="_235588639152">
		<path class="st0" d="M122.5,10c1.6-1.8,3.4-3.8,4.4-5.4c1-1.8,1.2-3,1-3.8c-0.4-1-2.2-0.8-3-0.6c0,0-18.8,6.8-26.3,9.6
			C91,12.6,81.6,16,64.1,16c-17.6,0-26.9-3.4-34.5-6.2C22,7,3.2,0.2,3.2,0.2C2.8,0.2,2.4,0,1.8,0C1.2,0,0.4,0.2,0,0.8
			c-0.2,0.8,0.2,2,1.2,3.8c1,1.6,2.6,3.6,4.2,5.4C7,11.6,8.2,13,9,14c0.6,0.8,0.4,1.4,0.2,2c0,0.6,0,1.4-0.6,2.2
			c-0.4,0.6-1.4,1.6-2.4,4.2s-2,7-2.6,11.8c-0.4,4.6-0.4,10,0.4,14.2c1,4.4,3,7.8,4.6,9.6s2.8,2,3.4,2.4c0.8,0.4,1,1,0.8,1.8
			c0,0.6-0.2,1.4-1,2.6C11,66,9.6,67.8,8.4,70c-1.4,2.4-2.6,5-3.6,8.4c-1,3.4-1.4,7.4-1.6,11.6c-0.2,4.4-0.2,9,0.6,13.8
			s2.2,10,4.2,15c2.2,4.8,4.8,9.6,7.6,14c2.8,4.6,5.8,8.8,7.8,11.4c1.8,2.4,2.4,3.2,2.6,4c0.2,0.8,0,1.4-0.4,2.4
			c-0.4,1.2-1.2,2.8-2,4.6c-0.6,1.8-1.4,4-1.6,6.6c-0.2,2.6-0.2,5.6,0,7.2c0.4,1.8,0.6,1.8,2.2,2.4c1.6,0.8,4.4,1.8,9.2,2.8
			c5,1.2,12,2.2,18,2.8c5.6,0.6,10.6,0.6,16.2,0.6c2.6,0,5.4,0,10.4-0.6c4.8-0.6,12-1.6,16.8-2.8c5-1,7.8-2,9.2-2.8
			c1.6-0.6,2-0.6,2.2-2.4c0.2-1.6,0.4-4.6,0-7.2c-0.2-2.6-0.8-4.8-1.6-6.6s-1.4-3.4-2-4.6c-0.4-1-0.4-1.6-0.2-2.4
			c0.2-0.8,0.8-1.6,2.6-4c1.8-2.6,4.8-6.8,7.8-11.4c2.8-4.4,5.4-9.2,7.4-14c2-5,3.4-10.2,4.2-15s1-9.4,0.8-13.8
			c-0.2-4.2-0.8-8.2-1.6-11.6c-1-3.4-2.2-6-3.6-8.4c-1.4-2.2-2.8-4-3.6-5.4c-0.8-1.2-1-2-1-2.6c0-0.8,0.2-1.4,0.8-1.8
			c0.8-0.4,2-0.6,3.6-2.4c1.6-1.8,3.4-5.2,4.4-9.6c1-4.2,1-9.6,0.4-14.2c-0.4-4.8-1.6-9.2-2.6-11.8s-1.8-3.6-2.4-4.2
			c-0.4-0.8-0.4-1.6-0.6-2.2c0-0.6-0.2-1.2,0.4-2C119.7,13,121.1,11.6,122.5,10z M39.9,54.3c-2.2,0-4.8,0-7.8,0c-2.8,0-6.2,0-9-0.2
			c-2.6,0-4.6-0.2-6.2-0.6c-1.4-0.6-2.6-1.4-3.6-2.6c-0.8-1.2-1.4-2.6-1.8-4c-0.4-1.6-0.6-3-0.8-4.8c-0.2-1.6-0.2-3.4,0-5
			c0-1.6,0.2-3,0.4-4.4c0.2-1.4,0.4-2.8,0.8-4c0.2-1.2,0.8-2.2,1.2-3c0.6-0.6,1.2-1.2,1.8-1.6c0.8-0.2,1.4-0.6,2-0.8
			c0.4-0.2,1-0.4,3.6-0.6c2.6-0.4,7-0.6,11.6-0.6s9.4,0.2,12.6,0.6c3.4,0.4,5.4,0.8,6.8,2.2c1.6,1.2,2.8,3.2,3.4,6.6
			c0.4,3.4,0.4,8.2,0.4,11.2c-0.2,3-0.2,4-0.6,5.2c-0.4,1-0.8,2-1.6,3c-0.8,1-2,1.8-3,2.2c-1.2,0.6-2.4,0.8-4,1
			C44.5,54.1,42.3,54.3,39.9,54.3z M79,75.8c-1.2,0.8-3.2,1.8-5.4,2.8c-2,1-4.2,2.2-5.6,2.8c-1.4,0.6-1.8,0.8-2,1
			c-0.4,0.2-0.6,0.4-1,0.4c-0.2,0-0.4,0-0.8,0s-0.8-0.2-1.2-0.4c-0.2-0.2-0.6-0.4-2-1c-1.4-0.6-3.6-1.8-5.6-2.8
			c-2.2-1-4.2-2-5.4-2.8c-1.2-0.6-1.6-1.2-1.6-1.6s0.2-1,0.6-1.8c0.6-1,1.2-2.4,3-5c1.8-2.6,4.8-6.6,6.6-8.8c1.8-2.4,2.6-3,3.4-3.4
			c0.8-0.6,1.6-1,2.6-1c0.8,0,1.6,0.4,2.6,1c0.8,0.4,1.4,1,3.2,3.4c1.8,2.2,4.8,6.2,6.6,8.8c1.8,2.6,2.4,4,3,5
			c0.4,0.8,0.6,1.4,0.6,1.8S80.2,75.2,79,75.8z M118.7,37.1c0,1.6,0,3.4,0,5c-0.2,1.8-0.4,3.2-0.8,4.8c-0.4,1.4-1,2.8-2,4
			c-0.8,1.2-2,2-3.6,2.6c-1.6,0.4-3.4,0.6-6.2,0.6c-2.6,0.2-6,0.2-9,0.2c-3,0-5.4,0-7.8,0c-2.2,0-4.4-0.2-6.2-0.2
			c-1.6-0.2-2.8-0.4-3.8-1c-1.2-0.4-2.2-1.2-3-2.2s-1.4-2-1.6-3c-0.4-1.2-0.6-2.2-0.6-5.2c-0.2-3-0.2-7.8,0.4-11.2
			c0.6-3.4,1.8-5.4,3.2-6.6c1.6-1.4,3.6-1.8,6.8-2.2c3.4-0.4,8-0.6,12.6-0.6s9.2,0.2,11.6,0.6c2.6,0.2,3.2,0.4,3.8,0.6
			s1.2,0.6,1.8,0.8c0.6,0.4,1.4,1,1.8,1.6c0.6,0.8,1,1.8,1.4,3c0.4,1.2,0.6,2.6,0.8,4C118.5,34.1,118.7,35.5,118.7,37.1z"/>
		<path class="st0" d="M30.3,34.5h4.8c1.4,0,2.6,1.2,2.6,2.6v2c0,1.4-1.2,2.6-2.6,2.6h-4.8c-1.4,0-2.6-1.2-2.6-2.6v-2
			C27.8,35.7,28.9,34.5,30.3,34.5z"/>
		<path class="st0" d="M94.6,34.5h4.8c1.4,0,2.6,1.2,2.6,2.6v2c0,1.4-1.2,2.6-2.6,2.6h-4.8c-1.4,0-2.6-1.2-2.6-2.6v-2
			C92,35.7,93.1,34.5,94.6,34.5z"/>
	</g>
</g>
</svg>
